<svg id="New_Layer" data-name="New Layer" xmlns="http://www.w3.org/2000/svg" viewBox="0 0 499.59 465.75"><defs><style>.cls-1{fill:#fff;fill-rule:evenodd;}</style></defs><path class="cls-1" d="M529.2-870.4a17.08,17.08,0,0,0-8,7.2l-2.7,4.7-.3,23.1c-.2,15.5.1,24.6.8,27.5,1.5,5.6,8.1,12.3,13.5,13.8,5.7,1.6,186.9,1.6,191.6,0A21,21,0,0,0,736-804c1.8-3.6,2-5.9,2-29,0-22.9-.2-25.4-2-28.9A20.18,20.18,0,0,0,724.2-872c-2.4-.6-35.8-1-96.8-1h-93Z" transform="translate(-262.18 873)"/><path class="cls-1" d="M531.8-775a19.46,19.46,0,0,0-11.1,9.3c-2.1,3.9-2.2,5.7-2.5,27.3-.4,25.7.2,29.5,5,35,6.5,7.4-1.3,6.9,102.6,7.2,61.3.2,94.6-.1,97.1-.8a21.23,21.23,0,0,0,12.8-9.5c2.3-3.9,2.3-4.5,2.1-30.7l-.3-26.6-3.1-3.9a27.43,27.43,0,0,0-7.4-6.1l-4.4-2.2-94.1.1C576.8-775.9,533.3-775.5,531.8-775Z" transform="translate(-262.18 873)"/><path class="cls-1" d="M529.2-676.9a18.84,18.84,0,0,0-10.1,12.4c-1.4,5.2-1.4,45.7,0,50.8,1.3,4.7,5.8,10,10.6,12.2,3.4,1.7,10.2,1.8,98.8,1.8l95.1-.1,4.3-2.1a21.07,21.07,0,0,0,7.2-6.8l2.9-4.7v-25.2c0-15.4-.4-26.4-1.1-28.1-1.5-4-5.7-8.2-10.4-10.4-3.8-1.8-8.7-1.9-98.5-1.9C533.6-679,533.5-679,529.2-676.9Z" transform="translate(-262.18 873)"/><path class="cls-1" d="M275.3-620.8c-2.8,1.3-3.7,4.2-6.2,19.3-5.3,31.9-7.7,69.9-6.7,107.5.8,29.7,1.6,37.4,4,39.8,1.4,1.5,4.5,1.7,23.3,2,14.4.2,22.5-.1,24.3-.8,4.2-1.7,5.1-4.8,4-13.2-1.9-14.4-.9-55.6,2-88.8.6-6.3,2.2-22.9,3.7-36.9l2.7-25.4-2.8-2.3c-2.7-2.4-3-2.4-24.4-2.3C286-621.9,276.6-621.4,275.3-620.8Z" transform="translate(-262.18 873)"/><path class="cls-1" d="M413.3-612.9a267.32,267.32,0,0,0-62,12.4c-6.1,1.9-11.3,4.1-11.6,4.8s-2.9,25.5-5.8,55.1c-4.6,46.6-5.1,53.8-3.8,55.1.8.8,6.6,2.1,13.4,3,17.3,2.5,22.3,4.5,88.5,36.3,55.9,26.7,77,35.9,88.5,38.2,10.3,2.1,30.2,0,86.5-9,16.8-2.7,34.6-5.4,39.5-6,24.5-3,26.4-3.9,63.5-28.7,31-20.8,43.1-30.3,46.7-37.2,3-5.7,3.2-13.7.3-17.3l-1.9-2.5,2.9-2.8c3.5-3.3,4.7-8.3,3-11.6-5.2-10.2-17.1-14.1-31.5-10.4-11.8,3.1-22.3,9.1-36.1,20.8-15.9,13.4-30.7,18.8-61.7,22.2-43.1,4.7-62.3,2.6-92.6-10.1-8.9-3.8-19.4-7.4-24.6-8.5-17.9-3.8-29.5-7.2-29.5-8.6,0-1,3.1-1.3,15.3-1.3,8.3,0,18.1-.5,21.7-1.1,14.4-2.5,33.2-1.6,67.5,3.4,17.6,2.6,35.8,5.4,40.5,6.2,15.8,2.8,22.1,1.7,29.3-5.3,7.7-7.4,11.7-19.5,9.6-29.1-2.2-10.2-11.5-16.5-32.9-22a361.89,361.89,0,0,0-53.5-9c-31.5-2.7-36.9-3.3-42.1-4.7-3-.8-14.4-5.7-25.2-10.9-21.3-10.2-35.5-15.4-50.5-18.5-9-1.8-31.8-4.2-37.6-3.9C425.7-613.8,419.4-613.3,413.3-612.9Z" transform="translate(-262.18 873)"/></svg>