<svg id="New_Layer" data-name="New Layer" xmlns="http://www.w3.org/2000/svg" viewBox="0 0 111.83 14.59"><defs><style>.cls-1{fill:#1299c6;fill-rule:evenodd;}</style></defs><path class="cls-1" d="M557.7-643.8c-7.1,3.1-21.4,7.2-30.9,8.8-2.1.3-3.8,1.1-3.8,1.6,0,1.3,5.1.6,16.5-2.3,9.3-2.3,28.5-9.7,28.5-10.9C568-648,565.9-647.5,557.7-643.8Z" transform="translate(-456.17 647.32)"/><path class="cls-1" d="M457-645.1c4.9,4.8,42,15.1,42,11.7,0-.5-1.7-1.3-3.7-1.6-9.5-1.4-25-5.7-31-8.4C457.2-646.8,454.7-647.3,457-645.1Z" transform="translate(-456.17 647.32)"/></svg>