<svg id="New_Layer" data-name="New Layer" xmlns="http://www.w3.org/2000/svg" viewBox="0 0 1280.69 1648.76"><defs><style>.cls-1{fill:#fff;fill-rule:evenodd;}</style></defs><path class="cls-1" d="M328.18-361.09C262.77-351.42,203.8-325,150.63-281.5l-21.91,17.72,17.08,17.4c9.34,9.35,17.72,17.08,18.69,17.08s11.92-8.38,24.81-18.69c30-23.84,66.06-43.18,102.47-54.13,26.42-8.06,33.51-9,82.16-9,46.08-.33,56.72.64,78.95,7.08,36.09,10.32,79.59,32.55,108,55.43C574-238,585.64-229.3,586.6-229.3s9.67-7.73,19-17.4l17.08-17.08L594-286.66C519.9-346.27,419.05-374.62,328.18-361.09Z" transform="translate(73.64 364.42)"/><path class="cls-1" d="M332.69-274.41c-41.89,7.73-93.45,31.58-123.73,57.68l-18.05,15.46L209-183.22l18.36,18,14.5-13.21c15.79-13.85,45.76-30.29,74.11-40,24.82-8.7,93.77-8.7,119.23-.33,29,9.67,56.06,24.17,72.82,39.32l15.79,13.85,18-17.72,18.37-17.72-11.92-10.32A259,259,0,0,0,444.18-268C417.11-275.7,359.11-278.92,332.69-274.41Z" transform="translate(73.64 364.42)"/><path class="cls-1" d="M334-182.25c-21.91,5.15-51.88,20.62-68,34.8l-11.6,10,17.4,17.08L289.51-103l16.76-11.6c41.56-28.68,96.67-28.68,138.88,0l16.75,11.28,17.4-17.08,17.4-17.08-11.6-10C446.76-181,386.18-194.82,334-182.25Z" transform="translate(73.64 364.42)"/><path class="cls-1" d="M353-47.57C340.1-41.44,296.28,1.09,136.78,160.91-44.63,343.29-64,363.59-68.8,377.77c-6.45,20.3-6.45,35.12,0,55.42,4.83,13.86,16.11,26.75,92.15,103.12C70.72,584,109.07,624,108.42,624.92c-2.25,2.25-73.14,260.36-78.3,284.84C14,988.39,56.22,1092.47,138.71,1175.92c37.7,38,71.53,63.16,110.52,81.85,37.06,17.72,59.94,23.84,98.93,26.1,83.13,4.83,153-26.43,232.32-104.08l43.5-42.54,38.67,38.67c41.89,41.89,54.45,49.3,83.45,49.3,34.8-.32,26.1,7.41,244.25-210.41,118.26-117.93,205.26-207.19,209.45-214.6,9.34-17.4,9.66-52.52,1-70.89-3.54-7.09-26.42-33.19-50.91-58.32l-44.47-45.12,11.28-11c14.5-14.18,27.39-40,27.39-54.46-.32-24.16-21.27-54.13-45.11-64.12-16.11-6.44-38.34-5.8-53.49,1.93C1030,506.34,927.52,609.13,920.11,624.6c-21,41.24,15.14,96.66,62.83,96.66,19.66,0,33.19-7.09,57.68-30.61l24.81-23.84L1080.57,682l15.15,15.15L887.88,904.93,680.05,1112.77,472.86,905.58,265.35,698.06l4.18-18c14.5-61.87,31.26-199.46,29.65-242.64-1.29-30.29-2.58-36.09-10.31-49.3-12.25-20.94-33.51-34.15-54.14-34.15-19.33,0-30,5.47-45.11,21.91-13.85,15.46-19.33,29.32-42.85,111.81-10.31,35.44-19.34,65.41-20.63,66.7s-24.48-20-51.87-47.37L24.32,457,232.16,249.2,440,41.37l93.45,93.44,93.44,93.45-21.59,21.59c-26.1,27.07-32.54,39-32.22,61.54.32,32.87,28,63.16,60.9,67.35,28.36,3.22,42.86-6.45,104.4-69,58-59,66.7-72.18,63.16-97.63-2.26-18.05-16.44-40.6-31.26-50.27-29.32-19.33-57.68-16.43-85.71,9l-17.72,16.44L551.8,72.62C466.41-12.44,432.9-43.7,422.27-48.53,401.65-57.88,373.61-57.55,353-47.57Zm-95.7,190.44c1.29,8.7-122.12,134.69-130.5,133.08-15.47-2.9-8.06-13.21,55.74-77.34,36.09-35.76,66.38-63.47,69-63.15C254.07,136.1,256.65,139.33,257.29,142.87ZM957.16,919.75c12.25,7.41,19.33,20.63,19.33,36.41,0,10.64-2.25,15.79-10.63,24.82-18.69,20.62-49,17.72-63.8-6.13-15.79-24.81,3.55-60.25,32.87-60.25C942,914.6,952,916.85,957.16,919.75Z" transform="translate(73.64 364.42)"/><path class="cls-1" d="M820.22,268.86C805.39,276.92,699.7,382.93,692.29,397.1c-19.33,37.38,10.31,89.58,53.49,94.42,31.58,3.54,33.84,2.25,99.25-62.84,66.7-66.05,72.18-74.43,69.6-103.75-1.94-19.34-13.54-37.38-32.22-50.27C866.29,263.38,835.68,260.48,820.22,268.86Z" transform="translate(73.64 364.42)"/><path class="cls-1" d="M932.67,384.54C908.51,396.46,811.84,495.06,804.1,516c-18.36,48.65,28.68,101.17,80.24,88.93,15.14-3.54,20.62-8.06,73.79-60.58,31.9-31.25,60.25-62.19,63.8-68.63,7.09-14.18,8.05-40,1.61-55.1-9.34-22.88-40-43.83-63.48-44.15C953.94,376.48,941.37,380,932.67,384.54Z" transform="translate(73.64 364.42)"/></svg>