<svg id="New_Layer" data-name="New Layer" xmlns="http://www.w3.org/2000/svg" viewBox="0 0 1589.72 1557.43"><defs><style>.cls-1{fill:#fff;fill-rule:evenodd;}</style></defs><path class="cls-1" d="M495.45-115.12l-31,1.8c-13.7.7-33.1,2.3-43,3.4s-24.7,2.8-33,3.6c-18.1,1.8-32.4,3.9-42.5,6.1-4.1.9-9.3,1.9-11.5,2.4-16,3-37,7.4-42,8.6-8.2,2.1-16.4,4.4-20,5.5-3.7,1.3-14.6,4.3-24.5,7-4.1,1.1-8.4,2.4-9.5,2.8-1.9.9-25.2,9.2-35.5,12.8-2.5.8-7.2,2.8-10.5,4.3s-10.3,4.5-15.5,6.5c-10.4,4-14.6,5.9-20,9.1-1.9,1.1-7.5,3.8-12.5,5.9a104.57,104.57,0,0,0-12,6.1,116.15,116.15,0,0,1-12.1,6.8A197.54,197.54,0,0,0,103-12.32c-4.5,3-8.8,5.5-9.4,5.5a9.49,9.49,0,0,0-3.6,2c-1.4,1.1-7.7,5.5-14,9.7s-12.4,8.6-13.5,9.6a72.93,72.93,0,0,1-7.5,5.4,100.39,100.39,0,0,0-10.6,8.2c-2.7,2.5-7.1,6.2-9.7,8.1-14.4,10.8-51.1,46.2-62.5,60.2-3,3.8-5.8,6.8-6.2,6.8s-2.5,2.6-4.8,5.7a96.35,96.35,0,0,1-6.6,8.6c-4.9,5.3-21.6,28-25.2,34.2a74.92,74.92,0,0,1-5,7.1c-1.9,2.3-3.4,4.5-3.4,5s-1.6,3.3-3.5,6.3a62.47,62.47,0,0,0-3.5,5.7,57.84,57.84,0,0,1-3.9,6.2,97,97,0,0,0-6.6,11.7,68.93,68.93,0,0,1-5.1,9.1c-2.2,3-11.4,21.8-11.4,23.3a32.06,32.06,0,0,1-2.8,5.2,127.55,127.55,0,0,0-7.1,15.4c-2.4,6-5.4,13.5-6.8,16.5s-3,6.8-3.7,8.5-3.1,8.4-5.2,15-4.1,12.4-4.5,13c-1.1,1.5-4.3,11.6-7.9,25-1.8,6.6-4.6,16.7-6.1,22.5-5.6,20.1-6.3,23.4-10.9,48.5-1.1,6-2.7,14.4-3.6,18.5s-2,9.5-2.5,12-1.4,9.2-1.9,15-1.7,16.8-2.5,24.5c-2.3,22.9-3.5,39.5-4.6,66.5-.6,14-1.3,28.9-1.7,33l-.7,7.5-5.5,3.7c-3,2-6.1,3.7-6.8,3.7s-3.4,2.1-6,4.5c-5.7,5.4-9.7,8.6-10.9,8.6-.4.1-2.8,2.8-5.3,6.1s-5.7,7-7.2,8a21.12,21.12,0,0,0-4.9,6.4,28.58,28.58,0,0,1-4.1,6.2,5.73,5.73,0,0,0-1.8,2.4c0,.5-1.8,3.8-4,7.4-2.3,3.8-5.7,11.8-7.9,18.8-9.8,30.6-9.4,25.1-9.8,123-.2,60.1,0,84.4.8,85.9.6,1.1,1.5,6.4,1.9,11.8,1.1,11.9,8.7,37.3,13.4,44.3,1.2,1.8,3.4,5.7,5,8.7a105.41,105.41,0,0,0,14.3,20,37,37,0,0,1,4.9,6,20.38,20.38,0,0,0,4.9,4.8c1.8,1.3,6.3,4.9,10.1,8.2a91.87,91.87,0,0,0,15.4,10.3c4.7,2.4,10.8,5.6,13.5,7.1a59,59,0,0,0,10.5,4.2c3,.8,7.8,2.2,10.5,3,11.1,3.3,30.5,4.3,84,4.4,45.5,0,52.3.2,54.3,1.6,1.2.8,2.2,2,2.2,2.6,0,1.4,5.5,15.8,8.6,22.5,2.3,5,4.8,11,10.9,26.8,1.5,3.8,3.3,7.7,4,8.5s3.3,6,5.9,11.5,5.8,12,7.1,14.5c8.2,16,11.6,22.2,15.1,27.5,2.1,3.3,4.9,8,6.2,10.4,5.3,9.7,18.8,31.3,21.5,34.4a98,98,0,0,1,6.5,9.2c7,10.7,17,24.4,22.2,30.5,2.5,3,6.4,8,8.7,11a66.73,66.73,0,0,0,5.6,6.9c1,.7,3.7,4.2,6.2,7.7s5.1,6.7,5.8,7.1a36.71,36.71,0,0,1,4.6,4.8c5.2,6.1,29,31.2,34,35.9,13.2,12.2,19.8,18.5,23,22a111.34,111.34,0,0,0,10.9,9.2c3.9,3,7.2,5.8,7.2,6.3s1.7,2,3.8,3.2a88.85,88.85,0,0,1,9.8,7.9c6.4,5.7,15.8,12.9,30.4,23.2,4.7,3.3,9.6,6.9,11,8.1a39.41,39.41,0,0,0,6,4.1c1.9,1.1,7.5,4.6,12.3,7.8s9,5.8,9.2,5.8c.6,0,12.8,7.3,14.2,8.5,2.9,2.4,4.5,3.3,15.6,9,6.5,3.3,13.9,7.1,16.5,8.5,10,5.2,29.2,14.1,42.4,19.4,7.6,3.1,14.6,6,15.5,6.4a67.22,67.22,0,0,0,12.3,4.2c1.9.5,8.7,2.7,15,4.9,20.9,7.2,34.8,10.3,68.5,15.6,5.5.9,12.7,2.2,16,2.8,9.8,2,63.5,1.5,76.5-.7l20-3.1c5.2-.8,13.6-2.3,18.5-3.4s11.5-2.5,14.5-3.1c9.4-2,28.6-7.9,46.5-14.1,1.7-.6,4.5-1.4,6.3-1.9a13,13,0,0,0,4.5-1.8c.7-.5,7.1-3.2,14.2-6.1,12.5-5,31.4-13.7,41.9-19.3,2.8-1.4,10.5-5.4,17.1-8.8s12.9-6.9,14-7.8c2-1.7,14.3-9.2,15.1-9.2.2,0,3.3-2,7-4.5a81.55,81.55,0,0,1,6.9-4.5,34.66,34.66,0,0,0,4.7-2.8c2.4-1.5,5-3.2,5.9-3.7s3.9-2.8,6.7-5,11-8.3,18.3-13.5,15.2-11.5,17.8-13.9a95.23,95.23,0,0,1,9.9-7.9c2.8-1.9,5.2-3.9,5.2-4.3s3.3-3.3,7.3-6.3a87.4,87.4,0,0,0,9.8-8.2c1.4-1.6,9.2-9.2,17.3-16.9,15.3-14.5,46-47,51.1-54,1.6-2.2,4.7-6.1,7-8.6a534.19,534.19,0,0,0,34.9-46.4,125.38,125.38,0,0,1,7.3-10.2c2.5-2.8,14.4-21.9,19.8-31.6,2.2-4,5.7-9.9,7.9-13.2,3.4-5.3,6.6-11.1,15.1-27.5,1.2-2.5,4.4-9,7-14.5s5.3-10.7,6-11.5,2.9-5.8,4.9-11c4.7-12.2,9.8-24.2,10.7-25.5a58.94,58.94,0,0,0,2.9-7.5c3.3-9.6,6.7-16.7,8.6-17.4.8-.3,24.8-.6,53.2-.6,62.2-.1,72.8-.9,93.2-7.1,6.1-1.8,7.5-2.5,24-11,5.3-2.7,11.2-6.4,13.1-8.1s6.3-5.4,9.9-8.2a64.94,64.94,0,0,0,7.2-6.2c.4-.6,4-5,8.1-9.8,7.4-8.8,19.2-28.4,22-36.6,4.7-13.7,7.6-25.4,8.2-32a85.09,85.09,0,0,1,2.1-12.5c2.1-7,1.6-165.3-.5-178.5-2.7-16.8-9.8-39.3-15.8-49.8a68.88,68.88,0,0,1-4.3-8.2,5.64,5.64,0,0,0-1.8-2.3,25.32,25.32,0,0,1-4.1-6.2c-1.3-2.5-3.4-5.3-4.7-6.1a37.33,37.33,0,0,1-6.1-6.6,42.18,42.18,0,0,0-7.7-8,109.83,109.83,0,0,1-9.3-7.9c-2.8-2.7-5.7-4.9-6.5-4.9s-3.8-1.7-6.8-3.8l-5.5-3.7-.7-7.5c-.3-4.1-1.1-18.8-1.7-32.5-1.2-27.9-2.5-46.2-4.6-67-.8-7.7-1.9-19-2.5-25s-1.5-12-2-13.3a15.27,15.27,0,0,1-1-5.4,42.77,42.77,0,0,0-1.4-8.7c-.8-3.1-2.4-11-3.6-17.6-4.3-24.3-5.2-27.8-12.4-54-2.5-8.8-5.4-19.8-6.6-24.5a77.86,77.86,0,0,0-5.5-16.5c-.8-1.7-3.2-8.4-5.4-15-4.9-14.4-6.1-17.6-8.8-23.5-1.2-2.5-4.1-9.5-6.4-15.5s-5.3-12.6-6.6-14.5a16.62,16.62,0,0,1-2.3-4.2c0-1.3-11.1-23.7-12.9-26a73.39,73.39,0,0,1-5-9,107.82,107.82,0,0,0-6.6-11.8,47.23,47.23,0,0,1-3.5-5.8,5.19,5.19,0,0,0-1.4-2.1,52,52,0,0,1-3.7-6.1,67.9,67.9,0,0,0-5.4-8.5c-1.7-2.2-6.1-8.5-9.8-14s-9.3-13.3-12.5-17.2-8.4-10.8-11.7-15a70.88,70.88,0,0,0-6.7-8.1,99.19,99.19,0,0,1-7.1-8c-12.9-15.7-51.2-52.5-64.1-61.7a97.18,97.18,0,0,1-8.4-7,83.44,83.44,0,0,0-9.4-7.2,90.48,90.48,0,0,1-7.7-5.5c-3.6-3.1-28.2-19.7-33.9-22.8-2.6-1.4-7.4-4.4-10.7-6.7a123.3,123.3,0,0,0-12.9-7.3c-7.1-3.3-14.8-7.9-15.4-9.3a1.39,1.39,0,0,0-1.2-.7c-1.3,0-23.2-10-24-10.9-.9-1.1-7.4-4-17-7.7-5.2-2-12.2-4.8-15.5-6.3-11.2-5.1-13.6-6.1-14.7-6.1-1.3,0-24.1-8.1-31.3-11.1-1.1-.5-5.4-1.7-9.5-2.8-16.8-4.5-22-6-23.9-7a11.05,11.05,0,0,0-4.5-1.1,17.39,17.39,0,0,1-5.8-1.4,90.87,90.87,0,0,0-17.8-4.6c-2.5-.4-10.3-2-17.5-3.5s-14.8-3.1-17-3.5-7.4-1.5-11.5-2.4c-12.7-2.8-25.5-4.5-52.5-7.2-8.8-.9-21.4-2.2-28-3C611-114.22,525.55-116.92,495.45-115.12ZM600-31.72c10.2.5,25,1.6,33,2.4s19.5,1.9,25.5,2.4a225.61,225.61,0,0,1,28.5,4.3,77.91,77.91,0,0,0,8,1.5c3.5.4,8.8,1.2,33,5.3a213.13,213.13,0,0,1,28.5,6.5c5.3,1.7,9.9,2.9,22.5,6s26.4,7.1,30.5,9c1.7.7,5.9,2.2,9.5,3.3s11,3.9,16.5,6.2,14.4,5.7,19.9,7.5a97.66,97.66,0,0,1,14.5,6.3c2.5,1.5,8,4.3,12.1,6.2s10.4,5,14,6.9,10.1,5.2,14.4,7.3a135.53,135.53,0,0,1,12.5,7.1,89.42,89.42,0,0,0,9.1,5.6,148.29,148.29,0,0,1,13.9,9c5.2,3.6,10.7,7.3,12.2,8.1a43.91,43.91,0,0,1,6.5,5,88.17,88.17,0,0,0,9,7c13.5,9.2,45.7,39.5,64.6,61,8.3,9.4,22.2,27.1,25.3,32.1a67.8,67.8,0,0,0,5.5,7.4,80,80,0,0,1,7.1,10.5c2.4,4.1,4.6,7.7,4.9,8,1,.8,11,17.3,11,18.1,0,.4,2.6,5.2,5.9,10.6s6.2,11,6.6,12.3a108.53,108.53,0,0,0,4.5,10.5c7.1,15,10,21.5,10,22.1,0,.8,3.3,8,6.1,13.5,1.8,3.5,9,25.6,10.4,31.8a6.68,6.68,0,0,0,1.6,3.6c.5.4.9,1.9.9,3.5s.4,3.1.9,3.4c2,1.3,8,23.2,11.2,41.1a64.43,64.43,0,0,0,1.8,7.5,49.53,49.53,0,0,1,1.6,6.4,21,21,0,0,0,1.5,5.5c1.3,2.5,4.8,22.2,6.5,37.1,1.6,13.9,3.8,28.4,5.6,38,.6,3,1.5,12.9,2,22s1.5,25.2,2.2,35.9c.9,14.9.9,19.7,0,21s-4.5,1.6-26.3,1.9c-29.6.4-29.1.5-30.8-8.5-1.7-8.4-4.2-22.8-5.2-29.8-1.3-9.6-3.1-18.7-4.6-23a24.41,24.41,0,0,1-1.4-6,24.41,24.41,0,0,0-1.4-6c-.7-2.2-2.4-8.5-3.6-14s-2.8-12-3.5-14.5c-3.4-12.1-4.9-17.1-7-23.5-1.3-3.9-4-12.2-6-18.5s-4.7-14.3-6.1-17.8-3.6-9.2-5-13c-5.1-13.3-5.7-14.8-10-23.9-2.4-5-4.4-9.6-4.4-10.1,0-1-4.7-11.3-7.7-16.7-.9-1.7-4.3-8.2-7.6-14.5s-7.8-14.7-10.2-18.5-5.4-9-6.7-11.5-4.2-7.2-6.4-10.5-5.3-8-6.7-10.5a54.78,54.78,0,0,0-5.8-8,69.63,69.63,0,0,1-5.6-7.5c-4.2-6.5-18.2-24.3-27.1-34.5-6.1-6.9-35.6-36.6-43.6-43.9-2.7-2.5-7.4-6.4-10.5-8.8s-8.1-6.3-11.1-8.8-8.4-6.6-12-9a112,112,0,0,1-10-7.5,53.22,53.22,0,0,0-8-5.4c-2.5-1.3-7.6-4.5-11.2-7s-9.5-5.9-13-7.7-8-4.3-10.3-5.7c-3.8-2.5-10.1-5.7-22.5-11.7-3-1.4-6.2-2.9-7-3.4-4.7-2.5-7.2-3.6-19.9-8.5-7.6-3-14.7-5.9-15.7-6.4-3.9-2-9.5-4.2-10.7-4.2-.7,0-7.3-2.1-14.7-4.6s-15.1-4.9-17.1-5.3a23.2,23.2,0,0,1-4.9-1.6,20.61,20.61,0,0,0-5.5-1.6c-2.2-.4-8.3-1.7-13.5-2.9s-12.4-2.8-16-3.6-9.6-2-13.5-2.9a329.44,329.44,0,0,0-32.5-5.5c-4.7-.6-9.6-1.2-11-1.5-2.9-.6-16.8-1.9-43.5-4-35.3-2.9-107.6-1.9-144.5,2-32.3,3.4-56.4,7.2-67.5,10.5a78.91,78.91,0,0,1-9,1.9c-3.3.6-10,2-15,3.2s-10.8,2.5-13,2.9a54.08,54.08,0,0,0-7,1.9c-6.9,2.6-34,11.1-35.2,11.1s-2.9.7-13.3,5.3c-3,1.4-10.2,4.3-16,6.5s-12.3,4.9-14.5,6-6,3-8.5,4.2c-16.2,7.8-19.8,9.7-22.5,11.6a103.52,103.52,0,0,1-10.5,6c-4.1,2.1-10.4,5.8-14,8.2s-8.5,5.5-11,6.8a45.2,45.2,0,0,0-7.4,4.9c-1.7,1.4-7.1,5.5-12,9s-12.5,9.3-16.7,12.7-9.1,7.5-11,9.1c-5,4-22.5,20.5-27.3,25.7-2.2,2.5-6.6,7-9.6,10-10.1,10.1-18.7,20.4-31.5,37.5-4.1,5.5-9.5,12.7-12,16a302.34,302.34,0,0,0-21,32.7,96.64,96.64,0,0,1-6.1,10.3,136.67,136.67,0,0,0-7.7,14c-3,6-6.7,12.7-8.1,14.8s-2.6,4.2-2.6,4.8-1.3,3.6-2.9,6.9a77.11,77.11,0,0,0-3.6,8.2c-.4,1.2-2.4,5.9-4.5,10.3s-4.5,9.8-5.3,12c-3.4,8.9-8.9,23.1-9.8,25.4-1.1,2.6-6.3,18.7-10,30.6-1.2,3.8-2.5,7.8-3,8.7a32.1,32.1,0,0,0-1.8,5.5c-.5,2.1-2.8,11.2-5,20.3s-4.8,18.5-5.6,21a31.05,31.05,0,0,0-1.5,6.5,25.44,25.44,0,0,1-1.4,6c-1.3,3.9-2.6,10.6-6.1,32-3.6,22.2-4.5,26-6.7,27.8-2,1.6-4.3,1.8-27.6,1.5-21.9-.3-25.5-.5-26.5-1.9-.9-1.2-.9-6.2,0-21,.7-10.7,1.7-26.8,2.2-35.9s1.4-19,2-22c3.3-17.6,4.1-22.9,4.1-26,0-7.8,5.1-37.8,9.5-55,1.9-7.7,3.8-15.7,5.9-26,2.2-10.5,6.2-24.2,8.5-28.8a75.61,75.61,0,0,0,4.1-12.2c1.8-8.3,8.2-26.2,12.4-35.2,2.5-5.3,4.6-10,4.6-10.3,0-.6,2.4-6.1,9-20,2.1-4.4,4.1-9.1,4.5-10.4s3-6.3,5.8-11,6.2-10.9,7.5-13.6a91.22,91.22,0,0,1,6.6-11c3.6-5.2,8.2-12.6,12.2-19.6a31,31,0,0,1,3.7-4.7,69.4,69.4,0,0,0,5.2-7.1c3.4-5.5,21-27.6,28.4-35.6,12.1-13.1,36.7-37.5,42-41.6,3.1-2.4,8-6.5,10.8-9.1a83.26,83.26,0,0,1,9.5-7.4,52.56,52.56,0,0,0,7.8-6.1,32.44,32.44,0,0,1,6.5-5c1.7-.9,6.6-4.2,11-7.3a145.76,145.76,0,0,1,12.3-8.1c6.5-3.6,7.5-4.2,11.1-6.9s19.2-10.9,34.1-18c13.7-6.6,15.2-7.4,20-10.2,2.5-1.5,9.2-4.3,15-6.3s12.1-4.4,14-5.3c4.5-2,11.6-4.7,21-7.9,4.1-1.4,8.9-3.2,10.5-3.9,4.3-1.8,18.3-5.9,30.5-8.9,12.9-3.2,17.4-4.3,22.5-6,11.2-3.5,17.9-4.9,50.5-10.1,5.2-.9,12.7-2.2,16.5-2.9,14.6-2.8,19.3-3.5,30-4.5,6.1-.5,15.5-1.4,21-1.9s15.3-1.6,21.9-2.2C479.05-33.42,559.65-33.82,600-31.72Zm-281.9,372.1a66.11,66.11,0,0,1,6.7,8.8,71.32,71.32,0,0,0,6.4,9,113.34,113.34,0,0,1,7.1,9.6c3.4,5.4,10.3,14.2,24,30.7,8.4,10.1,35.4,38,39.5,40.9a81.81,81.81,0,0,1,7.5,6.5c2.9,2.7,7.9,6.9,11.2,9.4s8.7,6.6,12,9.2a107.56,107.56,0,0,0,11,7.7,51.53,51.53,0,0,1,7,4.7,16.41,16.41,0,0,0,3.5,2.6c.8.4,2.4,1.3,3.5,1.9,6.1,3.9,12.6,7.8,13,7.8a32,32,0,0,1,4.8,2.7c9,5.7,50.4,25.3,53.5,25.3a23.41,23.41,0,0,1,5.3,2.3c2.4,1.3,9.6,4,15.9,6.1s12.4,4.4,13.5,5c3.5,1.8,14.2,5.6,26,9.1,15.3,4.5,27.5,8.5,29,9.6a24.48,24.48,0,0,0,4.5,1.4c4.4.9,10.9,2.9,41.5,13.1,13.2,4.4,30.3,11,34.7,13.4.9.5,4.8,2,8.5,3.4a119.91,119.91,0,0,1,13.3,5.9c3.6,2,8.8,4.8,11.5,6.3a83.87,83.87,0,0,1,9.8,6.1c2.7,1.9,5.2,3.3,5.7,3.1s-.1-3.2-1.1-6.8-2.5-8.3-3.1-10.5a19.9,19.9,0,0,0-2.5-5.6A5.84,5.84,0,0,1,740,577c0-.3-2.6-5.9-5.7-12.4-5.6-11.8-17-29.7-23.1-36.4-1.8-1.9-3.2-4.3-3.2-5.4,0-1.7.5-1.8,4.8-1.1,2.6.4,8.3,1.1,12.7,1.5,21.6,2.3,47.4,6.2,52.2,8.1a17,17,0,0,0,5,.9,36.24,36.24,0,0,1,7.7,1.4c2.8.8,8.9,2.2,13.6,3.1,16.6,3.3,44.9,10.6,50.7,13.1a15,15,0,0,0,4.4,1.4,17.58,17.58,0,0,1,4.3,1c1.7.5,6.9,2.1,11.5,3.5s11.4,3.7,15,5.1c11.5,4.4,13.5,5.2,19.6,7.5,3.3,1.2,8.7,3.4,12,4.9s7.6,3.3,9.4,4.1c6.1,2.4,23.5,11,25.1,12.3a28.7,28.7,0,0,0,6,3.1c6.7,2.9,17.4,9.2,19.5,11.5a6,6,0,0,0,2.9,2c1.4,0,18.2,10.8,21.6,14,1.4,1.2,4.8,3.9,7.5,6s7.4,6,10.3,8.7l5.2,4.9v10.5a118.25,118.25,0,0,0,1,14.9c.5,2.5,1.4,21.6,2.1,42.5,1.5,48.7,0,86.9-4.6,116-2.2,14.3-3.6,23.6-4.5,30-1.4,9.8-4.8,27.6-6.5,34-.9,3.3-2,7.9-2.5,10.3a27,27,0,0,1-2,6.1,11.24,11.24,0,0,0-1,3.9,32.46,32.46,0,0,1-1.4,6.8c-.8,2.7-2.4,8.5-3.6,12.9a205.52,205.52,0,0,1-9.1,26.2,20.37,20.37,0,0,0-1.9,5.4c0,1.8-4.7,14.5-8.5,22.9-1.8,4.1-4.4,10.2-5.6,13.5s-3.9,8.9-5.8,12.5-6.1,11.8-9.2,18.2-6.9,13.4-8.1,15.5a80.58,80.58,0,0,0-4.3,8.3c-1,2.5-4.8,9.1-8.4,14.7-15,23.2-19.7,30.6-22.1,34.8a92,92,0,0,1-6.8,9.7c-2.3,2.9-7.5,9.5-11.5,14.7-27.1,35.2-43.9,53.5-80.2,87.1-15.9,14.7-19,17.3-27.5,23.4-3,2.2-7.1,5.4-9,7.1a90.9,90.9,0,0,1-9.2,7c-3.2,2-5.8,4-5.8,4.4s-3,2.6-6.7,5.1-10.8,7-15.7,10.3-10.9,7-13.5,8.4a54,54,0,0,0-7.1,4.8,81,81,0,0,1-11,6.5c-4.7,2.3-10.7,5.5-13.5,7.1s-9.7,5.2-15.5,8-12.2,5.9-14.4,7c-4.1,2.1-20.9,8.9-22,8.9a52.63,52.63,0,0,0-5.9,2.6c-5.5,2.7-11.3,4.8-23.7,8.4a91.78,91.78,0,0,0-9.8,3.1,13.58,13.58,0,0,1-3.8.9,14.65,14.65,0,0,0-4.7,1.4,64.84,64.84,0,0,1-8.7,2.4c-35.3,7.1-57,9.1-79,7.3-17.5-1.5-26.7-2.8-36.5-5.3-4.4-1.1-9.6-2.4-11.5-2.9s-6-1.5-9-2.4-8-2.3-11-3c-6.7-1.7-21.9-6.8-24.6-8.3-1-.6-7.1-3.1-13.6-5.6-9.5-3.7-33.9-14.8-41-18.6-2.7-1.5-18.5-10.4-26-14.7-3.8-2.1-6.8-4.1-6.8-4.4s-.8-.9-1.7-1.3a18.51,18.51,0,0,1-3.8-1.8c-1.1-.7-5.7-3.8-10.4-6.8s-10.6-6.9-13.3-8.6a103.71,103.71,0,0,1-9-6.5,84.86,84.86,0,0,0-8.3-5.9c-4-2.5-8.2-5.8-29.2-23.3-27.7-23.1-59.9-55.4-81.8-82.2-4.4-5.3-10.3-12.5-13-15.9a95.21,95.21,0,0,1-7.5-10.1,81,81,0,0,0-6.6-9c-5.5-6.6-7.9-11.4-6.5-12.8.8-.8,1.4-.8,2.3.1a5.1,5.1,0,0,0,3.3,1.2,4.86,4.86,0,0,1,3,.9,58.85,58.85,0,0,0,8,3.6,54.65,54.65,0,0,1,8.4,3.9c1.2.9,29.8,11,38.6,13.5,1.7.5,4.4,1.4,6,1.9,4.7,1.6,13.4,3.9,20.5,5.6,3.6.8,12.1,2.9,19,4.7s14.8,3.5,17.5,3.9,9.7,1.5,15.5,2.3c17.7,2.6,24.3,3.6,30,4.7,3,.6,10.5,1.4,16.5,2s14.4,1.4,18.5,1.9,12.7,1.5,19,2.2c20.5,2.1,21.2,2.3,22.4,4.3,4.7,8.4,15.9,21.2,23,26.3,2.7,1.9,5.4,3.9,6,4.4,4.1,3.3,14.9,9.8,18.6,11.3,2.5,1,5.9,2.4,7.5,3.1,8.9,4,12.9,5.5,14.4,5.5a4.28,4.28,0,0,1,2.6.9c1.4,1.2,19,4.7,30.8,6.1,18.3,2.1,46.2,1,60-2.5a50.15,50.15,0,0,1,8.4-1.5c1.4,0,5.1-1.1,8.2-2.4s8.8-3.6,12.6-5.1c8.1-2.9,19.5-8.6,19.5-9.6,0-.4.8-1,1.8-1.3,7.2-2.7,20.7-14.3,30.3-26.1a73.34,73.34,0,0,0,15-59.4c-1.5-8-7.9-24-10.7-26.9a80.44,80.44,0,0,1-6-7.5c-5-6.5-7.7-9.3-13.4-13.5-1.9-1.5-5.3-4.1-7.4-5.9s-4.6-3.3-5.3-3.3-1.3-.4-1.3-.9c0-.7-13.6-7.8-19.5-10.2-4.4-1.7-9.2-3.7-12-4.9-3.6-1.7-10.3-3.2-25.5-6.1-9.6-1.8-15.1-2.2-33-2.1-21.4,0-32,1.1-48.5,5.2-5.7,1.5-26.5,9.9-34,13.8-13.5,7.1-28.4,19.9-38.2,32.8l-3.6,4.7-12.1-.7c-14.7-.8-35.9-3.1-48.1-5.1-4.9-.9-11.7-2-15-2.6s-9.1-1.4-13-1.9c-12.7-1.5-39.8-7.1-48.2-9.8-3.2-1.1-13-3.9-21.8-6.2a213.35,213.35,0,0,1-21-6.5c-9.6-4.4-12.3-5.5-13.7-5.5a4.23,4.23,0,0,1-2.3-.8,27.27,27.27,0,0,0-5-2.1,147.28,147.28,0,0,1-17-7.3c-1-.6-5.5-2.9-10-5.1s-9.6-5-11.5-6.2-7.4-4.3-12.2-6.9a156,156,0,0,1-16-10.1c-4-3-7.8-5.5-8.4-5.5s-1.9-1-3-2.1-6-5.4-11-9.5c-10.1-8.1-31.2-29.6-34.8-35.2-2.1-3.5-7.2-19.8-11.1-35.7a60.57,60.57,0,0,0-2.6-8.8c-1.1-2-1.5-3.7-5.9-25.2-4.2-20.4-4.7-23.3-6.5-36.5-.9-6.3-2.2-15.4-3-20.1a104,104,0,0,1-1.5-12.5,54.64,54.64,0,0,0-.9-7.9c-3.2-14.1-3.4-118.5-.2-120.4.7-.5,3.9-1.3,7-1.9,6.3-1.2,15.4-2.9,22-4.3a19.07,19.07,0,0,0,5.5-1.8,12.81,12.81,0,0,1,3.6-1.4,47.08,47.08,0,0,0,5.5-1.6c1.7-.6,8.2-2.9,14.5-5.1s16.9-6.9,23.5-10.2,13.4-6.8,15-7.6,5.7-3.4,9-5.7a95,95,0,0,1,9.5-6,55.09,55.09,0,0,0,6.7-4.4c1.7-1.4,6-4.6,9.4-7.1,9.6-6.9,18.7-14.9,31.6-27.8,15.7-15.6,19.7-20.1,27.8-30.7,3.7-5,7.7-10,8.9-11.3s3.9-5.2,6.1-8.6,5.6-8.7,7.6-11.7,5.5-9,7.9-13.4,5.3-9.6,6.5-11.5a132.72,132.72,0,0,0,5.9-12.5c2.1-5,4.9-11.1,6.2-13.7,2.7-5.2,4.4-9.9,7.9-20.8,3.2-10.1,4.5-13.9,6.2-17.9a54.79,54.79,0,0,0,2.3-7.5c.5-2.3,1.8-8.2,2.9-13.1s2.9-14.9,4.1-22,2.7-16.6,3.5-21a198.31,198.31,0,0,0,1.9-21c.4-11.2,1.1-16.2,3.1-22.3C312.15,335.28,313.85,336.08,318.05,340.38Z" transform="translate(259.82 115.69)"/><path class="cls-1" d="M312,662.88c-8,1.4-11.3,2.6-22,8.3-4.6,2.4-15.3,10.1-18,12.9-3.7,3.8-13,16.4-13,17.6a1.91,1.91,0,0,1-1.1,1.7c-.5.2-2.6,5-4.5,10.7-8,24.2-4.4,55.2,8.5,71.7.9,1.2,3.5,4.6,5.8,7.7,4.5,5.8,12,12,21.8,17.8,11.7,7,21.5,9.3,39.5,9.3,17.3,0,28.9-2.8,38.8-9.5a32.49,32.49,0,0,1,4.8-2.9c1.4,0,10.2-7.6,15.8-13.7,6.2-6.7,15.6-23.1,15.6-27.1a8.69,8.69,0,0,1,1.3-3.7c2.5-3.6,4-22.9,2.7-32.5-1.8-13-10.1-32.9-16.5-39.6-1.6-1.8-5.1-5.5-7.7-8.2-3.8-4-19.3-14.3-24.3-16.1-.5-.2-2.3-1-4-1.7-4.5-2-19.9-4.4-27.9-4.3A114.71,114.71,0,0,0,312,662.88Z" transform="translate(259.82 115.69)"/><path class="cls-1" d="M725.45,662.68a75.8,75.8,0,0,0-11.2,3,22.49,22.49,0,0,1-3.7,1.5c-1.6,0-21.4,12.5-23.4,14.8-1.3,1.5-4.4,4.9-7,7.7-8.1,8.6-16.2,27.2-18.2,41.7-1.4,9.9.2,28.7,2.7,32.3a8.69,8.69,0,0,1,1.3,3.7c0,3.9,9.3,20.3,15.4,27,8.5,9.5,22.8,19,34.8,23,8.8,2.9,10.2,3.1,24.8,3.2,12.1,0,16.7-.3,21-1.7,3-1,7.1-2.2,9-2.8,7.8-2.5,25.1-14.5,29.7-20.7,1.5-2,4.4-5.7,6.4-8.2,19.4-24.2,18.1-71.5-2.5-95.1-1.7-1.9-4-4.7-5.1-6.2-2.5-3.2-13.5-11.5-19-14.4-7.9-4.1-10-5.1-12.5-6.1C758.65,661.58,738.15,660.38,725.45,662.68Z" transform="translate(259.82 115.69)"/></svg>