<svg id="New_Layer" data-name="New Layer" xmlns="http://www.w3.org/2000/svg" viewBox="0 0 255.01 286.72"><defs><style>.cls-1{fill:#fff;fill-rule:evenodd;}</style></defs><path class="cls-1" d="M448-782c-9.8,2.1-23.4,9.4-31.8,17.1-12.6,11.5-22.4,28.8-26.7,46.9-6.5,28.1-6.2,131.3.5,157.8,6.4,25.3,22,45.9,42.4,56.2,17.5,8.8,37,9.8,51.1,2.7,5.6-2.8,22.5-14.3,24.5-16.7,5.1-6.2-1.9-32.2-13.2-49.1-5-7.5-10.1-11.6-14.3-11.7-1.3,0-6.4,2.5-11.2,5.6-9.4,5.9-18.4,10.7-20.1,10.7-3,0-6.4-2.8-8.4-6.9l-2.3-4.6v-65.5c0-51.2.3-66.3,1.3-69.2,1.6-4.4,5.8-8.8,8.4-8.8s10.3,3.9,21.1,10.7c4.8,3.1,9.9,5.5,11.2,5.5,4.2,0,9.3-4.1,14.3-11.6,11.3-16.9,18.3-42.9,13.2-49.1-2-2.4-18.9-13.9-24.5-16.7C474.3-783.3,460.4-784.6,448-782Z" transform="translate(-384.8 783.32)"/><path class="cls-1" d="M587.1-740.1l-7.4,7.4,5.9,6.9C606.2-701.9,618-670.7,618-640s-11.8,61.9-32.4,85.9l-5.9,6.8,7.6,7.6,7.6,7.6,3.2-2.9c5-4.7,15.2-18.3,20.2-26.7,12.1-20.5,18.7-41.1,20.9-65.5,3.3-36.6-6.9-72.9-29.1-103.3-5.6-7.6-13.9-17-15-17C594.7-747.5,591.1-744.2,587.1-740.1Z" transform="translate(-384.8 783.32)"/><path class="cls-1" d="M560-713l-7.4,7.5,3,3.2c17.5,18.9,26.6,47,23.4,72.4-2.5,20.5-10.5,38.4-23.4,52.2l-3,3.2,7.6,7.7,7.7,7.7,2.7-2.4c4.8-4.4,13.9-17.5,18.6-26.6,8.5-16.4,12.2-32.4,12.2-51.9,0-23.9-5.9-43.8-19-63.7-4.5-6.7-13-16.8-14.3-16.8C567.8-720.5,564.1-717.1,560-713Z" transform="translate(-384.8 783.32)"/><path class="cls-1" d="M532.1-685.1l-7.4,7.4,3.5,4.1c7.9,9.3,11.8,20.3,11.8,33.6s-3.9,24.3-11.8,33.6l-3.5,4.1,7.9,7.9,8,8,4.7-5.8c18.1-22.1,21.9-54.5,9.3-80.8-3.4-7.2-12.3-19.4-14.1-19.5C539.9-692.5,536.1-689.2,532.1-685.1Z" transform="translate(-384.8 783.32)"/></svg>